<svg width="421" height="596" viewBox="0 0 421 596" fill="none" xmlns="http://www.w3.org/2000/svg">
<path fill-rule="evenodd" clip-rule="evenodd" d="M268.798 0C247.719 30.9158 236.082 106.498 281.798 170.5C298.145 193.386 317.12 209.271 335.725 224.847C374.027 256.911 410.765 287.666 419.798 375.5C427.129 446.792 388.798 560.489 278.298 587.5C88.5876 633.874 4.51294 467.816 0.297159 383.5C-3.91862 299.184 37.5304 214.597 73.298 188C52.2979 232 73.298 337.248 113.298 323C127.735 317.858 123.592 302.598 117.345 279.592C112.991 263.557 107.616 243.759 106.798 221C104.215 149.123 149.298 48.5 268.798 0ZM174.298 309C176.799 284.492 202.493 274.568 257.298 283C308.298 290.846 347.083 341.626 351.298 393C356.226 453.045 302.898 530.675 227.798 524C141.339 516.315 140.464 472.133 146.798 462C198.344 379.534 187.262 351.527 179.033 330.733C176.086 323.287 173.506 316.766 174.298 309Z" fill="#F2F2F2"/>
</svg>
